<svg xmlns="http://www.w3.org/2000/svg" viewBox="0 0 120.095 120.311"><defs><style>.cls-1{fill:none;stroke:#231815;stroke-miterlimit:10;stroke-width:0.25px;}</style></defs><title>b1</title><g id="圖層_2" data-name="圖層 2"><g id="圖層_3" data-name="圖層 3"><path class="cls-1" d="M114.6,93.2h3.608v11.914a15.077,15.077,0,0,1-15.077,15.077h-86.2A15.077,15.077,0,0,1,1.857,105.109V93.2H5.873v12.7a9.882,9.882,0,0,0,9.882,9.883H104.72A9.882,9.882,0,0,0,114.6,105.9ZM5.873,14.179A9.882,9.882,0,0,1,15.755,4.3H104.72a9.882,9.882,0,0,1,9.882,9.883V28.646h3.608V15.2A15.077,15.077,0,0,0,103.133.125h-86.2A15.077,15.077,0,0,0,1.857,15.2V28.646H5.873ZM24.1,97.926a3.487,3.487,0,0,1,2.255.871V97.045a4.611,4.611,0,0,0-5.7,1.111,6.828,6.828,0,0,0-1.327,4.405,6.206,6.206,0,0,0,1.229,4,3.937,3.937,0,0,0,3.229,1.537,4.3,4.3,0,0,0,2.553-.781V105.7a3.43,3.43,0,0,1-2.332.971,2.818,2.818,0,0,1-2.356-1.142,5.008,5.008,0,0,1-.877-3.123,5.218,5.218,0,0,1,.94-3.257A2.888,2.888,0,0,1,24.1,97.926Zm10.425,9.91v-1.742h-.051a3.106,3.106,0,0,1-2.893,2,2.837,2.837,0,0,1-2.2-.876,3.665,3.665,0,0,1,2.293-5.911l2.842-.481q0-2.883-1.957-2.882A4.2,4.2,0,0,0,29.5,99.318V97.556a5.116,5.116,0,0,1,3.173-1.051q3.276,0,3.276,4.094v7.237Zm-.008-5.615-2.306.36a2.944,2.944,0,0,0-1.681.686,2.142,2.142,0,0,0-.472,1.526,1.858,1.858,0,0,0,.507,1.352,1.765,1.765,0,0,0,1.323.52,2.3,2.3,0,0,0,1.88-.951,3.718,3.718,0,0,0,.749-2.372Zm5.97,5.615V91.449H39.078v16.387Zm7.61-9.91a3.483,3.483,0,0,1,2.254.871V97.045a4.611,4.611,0,0,0-5.7,1.111,6.834,6.834,0,0,0-1.327,4.405,6.206,6.206,0,0,0,1.23,4,3.937,3.937,0,0,0,3.229,1.537,4.3,4.3,0,0,0,2.553-.781V105.7a3.43,3.43,0,0,1-2.332.971,2.819,2.819,0,0,1-2.357-1.142,5.008,5.008,0,0,1-.876-3.123,5.212,5.212,0,0,1,.94-3.257A2.887,2.887,0,0,1,48.1,97.926Zm12.554,9.91V96.765H59.234v6.377a4.2,4.2,0,0,1-.723,2.542,2.211,2.211,0,0,1-1.863.991q-2.315,0-2.315-3.573V96.765h-1.4v6.617q0,4.715,3.37,4.715a3.047,3.047,0,0,0,2.9-2.013h.034v1.752Zm4.684,0V91.449H63.927v16.387Zm8.742,0v-1.742h-.052a3.105,3.105,0,0,1-2.892,2,2.835,2.835,0,0,1-2.2-.876,3.665,3.665,0,0,1,2.293-5.911l2.841-.481q0-2.883-1.957-2.882a4.2,4.2,0,0,0-3.062,1.371V97.556a5.116,5.116,0,0,1,3.173-1.051q3.276,0,3.276,4.094v7.237Zm-.009-5.615-2.305.36a2.944,2.944,0,0,0-1.681.686,2.147,2.147,0,0,0-.472,1.526,1.857,1.857,0,0,0,.506,1.352,1.767,1.767,0,0,0,1.324.52,2.3,2.3,0,0,0,1.879-.951,3.718,3.718,0,0,0,.749-2.372Zm9.176-4.015V96.765H80.866V93.5l-1.412.54v2.723H77.82v1.441h1.634v6.658q0,3.211,2.425,3.212a2.41,2.41,0,0,0,1.369-.35v-1.442a1.367,1.367,0,0,1-.977.371,1.206,1.206,0,0,1-1.081-.481,2.994,2.994,0,0,1-.324-1.611V98.206Zm9.973-.17a6.793,6.793,0,0,1,1.179,4.235,6.574,6.574,0,0,1-1.277,4.223,4.1,4.1,0,0,1-3.378,1.6,4.038,4.038,0,0,1-3.288-1.542,6.316,6.316,0,0,1-1.255-4.114,6.739,6.739,0,0,1,1.281-4.35,4.235,4.235,0,0,1,3.484-1.586A3.879,3.879,0,0,1,93.221,98.036Zm-.268,4.294a5.621,5.621,0,0,0-.8-3.257,2.642,2.642,0,0,0-2.3-1.147,2.745,2.745,0,0,0-2.332,1.187,5.421,5.421,0,0,0-.867,3.257,5.123,5.123,0,0,0,.872,3.134,2.757,2.757,0,0,0,2.327,1.171,2.652,2.652,0,0,0,2.293-1.142A5.457,5.457,0,0,0,92.953,102.33Zm4.265-5.565v11.071h1.421V102.17a5.845,5.845,0,0,1,.642-2.928,1.881,1.881,0,0,1,1.638-1.116,1.643,1.643,0,0,1,1.132.351V96.725a2.211,2.211,0,0,0-.919-.15,2.053,2.053,0,0,0-1.464.651,3.968,3.968,0,0,0-.986,1.832h-.043V96.765ZM116.46,32.214a3.511,3.511,0,0,0-3.511,3.51V80.537a3.511,3.511,0,0,0,7.021,0V35.724A3.51,3.51,0,0,0,116.46,32.214ZM103.324,80.537V36.9a3.682,3.682,0,0,0-3.485-3.688c-1.645-.013-2.452,1.214-3.5,2.552C92.5,40.675,82.265,53.557,78.7,58.046a1.593,1.593,0,0,1-2.5,0c-3.568-4.489-13.8-17.371-17.642-22.28-1.047-1.338-1.854-2.565-3.5-2.552a3.674,3.674,0,0,0-3.486,3.68V80.345a3.638,3.638,0,0,0,3.322,3.7,3.51,3.51,0,0,0,3.7-3.5V46.248L72.958,64.243l3.374,4.227a1.429,1.429,0,0,0,2.235,0l3.374-4.227L96.3,46.248v34.09a3.644,3.644,0,0,0,3.322,3.7A3.511,3.511,0,0,0,103.324,80.537ZM3.056,83.839A2.9,2.9,0,0,1,.125,80.961V36.092a2.9,2.9,0,0,1,2.931-2.878l21.54.151c4.51,0,8.093,1.338,10.649,3.976a13.141,13.141,0,0,1,3.829,9.438,12.625,12.625,0,0,1-3.2,8.77,13.921,13.921,0,0,1-1.964,1.785A2.761,2.761,0,0,0,33,58.526a2.757,2.757,0,0,0,.906,1.193A13.921,13.921,0,0,1,35.87,61.5a12.623,12.623,0,0,1,3.2,8.77,13.141,13.141,0,0,1-3.829,9.438c-2.556,2.638-6.139,3.976-10.649,3.976Zm2.932-5.523H26.336l1.241-.257a10.527,10.527,0,0,0,4.3-2.62,6.666,6.666,0,0,0,1.893-5.091,8.852,8.852,0,0,0-2.736-6.357c-1.824-1.886-4.449-2.8-8.024-2.8l-9.529-.058a2.606,2.606,0,1,1,0-5.208l9.529-.057c3.575,0,6.2-.917,8.024-2.8A8.853,8.853,0,0,0,33.773,46.7a6.666,6.666,0,0,0-1.893-5.09,10.527,10.527,0,0,0-4.3-2.62l-1.241-.257H5.988V78.316ZM77.043,20.594s0-4.233,0-5.67c-4-2.329-10.215-3.452-16.4-3.444h-.181c-6.182-.008-12.4,1.115-16.4,3.444,0,1.437,0,5.67,0,5.67H77.043Z"/></g></g></svg>