<svg xmlns="http://www.w3.org/2000/svg" viewBox="0 0 119.845 120.061"><defs><style>.cls-1{fill:#231815;}</style></defs><title>b2</title><g id="圖層_2" data-name="圖層 2"><g id="圖層_3" data-name="圖層 3"><path class="cls-1" d="M114.477,93.07v12.7a9.882,9.882,0,0,1-9.882,9.883H15.63a9.882,9.882,0,0,1-9.882-9.883V93.07H1.732v11.914a15.077,15.077,0,0,0,15.077,15.077h86.2a15.077,15.077,0,0,0,15.077-15.077V93.07Z"/><path class="cls-1" d="M5.748,14.054A9.882,9.882,0,0,1,15.63,4.171H104.6a9.882,9.882,0,0,1,9.882,9.883V28.521h3.608V15.077A15.077,15.077,0,0,0,103.008,0h-86.2A15.077,15.077,0,0,0,1.732,15.077V28.521H5.748Z"/><path class="cls-1" d="M26.217,107.191a4.3,4.3,0,0,1-2.553.781,3.937,3.937,0,0,1-3.229-1.537,6.206,6.206,0,0,1-1.229-4,6.824,6.824,0,0,1,1.327-4.4,4.61,4.61,0,0,1,5.7-1.112v1.752a3.487,3.487,0,0,0-2.255-.871,2.885,2.885,0,0,0-2.386,1.227,5.212,5.212,0,0,0-.941,3.257,5.008,5.008,0,0,0,.877,3.123,2.818,2.818,0,0,0,2.356,1.142,3.43,3.43,0,0,0,2.332-.971Z"/><path class="cls-1" d="M29.376,97.431A5.117,5.117,0,0,1,32.55,96.38q3.275,0,3.275,4.094v7.237H34.4v-1.742h-.051a3.106,3.106,0,0,1-2.893,2,2.837,2.837,0,0,1-2.2-.876,3.665,3.665,0,0,1,2.293-5.911L34.4,100.7q0-2.881-1.957-2.882a4.2,4.2,0,0,0-3.063,1.371Zm2.714,5.025a2.944,2.944,0,0,0-1.681.686,2.142,2.142,0,0,0-.472,1.526,1.858,1.858,0,0,0,.507,1.352,1.761,1.761,0,0,0,1.323.52,2.3,2.3,0,0,0,1.88-.951,3.718,3.718,0,0,0,.749-2.372V102.1Z"/><path class="cls-1" d="M38.953,107.711V91.325h1.413v16.386Z"/><path class="cls-1" d="M50.214,107.191a4.3,4.3,0,0,1-2.553.781,3.937,3.937,0,0,1-3.229-1.537,6.206,6.206,0,0,1-1.23-4,6.824,6.824,0,0,1,1.328-4.4,4.609,4.609,0,0,1,5.7-1.112v1.752a3.483,3.483,0,0,0-2.254-.871,2.887,2.887,0,0,0-2.387,1.227,5.212,5.212,0,0,0-.94,3.257,5.008,5.008,0,0,0,.876,3.123,2.819,2.819,0,0,0,2.357,1.142,3.43,3.43,0,0,0,2.332-.971Z"/><path class="cls-1" d="M60.53,107.711H59.109v-1.752h-.034a3.047,3.047,0,0,1-2.9,2.013q-3.37,0-3.37-4.715V96.64h1.4v6.337q0,3.573,2.315,3.573a2.211,2.211,0,0,0,1.863-.991,4.2,4.2,0,0,0,.723-2.542V96.64H60.53Z"/><path class="cls-1" d="M63.8,107.711V91.325h1.412v16.386Z"/><path class="cls-1" d="M68.928,97.431A5.116,5.116,0,0,1,72.1,96.38q3.276,0,3.276,4.094v7.237H73.956v-1.742h-.051a3.108,3.108,0,0,1-2.893,2,2.835,2.835,0,0,1-2.2-.876,3.665,3.665,0,0,1,2.293-5.911l2.841-.481q0-2.881-1.957-2.882a4.2,4.2,0,0,0-3.062,1.371Zm2.714,5.025a2.944,2.944,0,0,0-1.681.686,2.147,2.147,0,0,0-.472,1.526A1.857,1.857,0,0,0,70,106.02a1.763,1.763,0,0,0,1.324.52,2.3,2.3,0,0,0,1.879-.951,3.718,3.718,0,0,0,.749-2.372V102.1Z"/><path class="cls-1" d="M83.123,107.6a2.408,2.408,0,0,1-1.369.35q-2.426,0-2.425-3.212V98.081H77.7V96.64h1.633V93.917l1.412-.54V96.64h2.382v1.441H80.741v6.357a2.994,2.994,0,0,0,.324,1.611,1.206,1.206,0,0,0,1.081.481,1.361,1.361,0,0,0,.977-.371Z"/><path class="cls-1" d="M85.077,102.316a6.739,6.739,0,0,1,1.281-4.35,4.235,4.235,0,0,1,3.484-1.586A3.879,3.879,0,0,1,93.1,97.911a6.793,6.793,0,0,1,1.179,4.235A6.574,6.574,0,0,1,93,106.369a4.1,4.1,0,0,1-3.378,1.6,4.038,4.038,0,0,1-3.288-1.542A6.316,6.316,0,0,1,85.077,102.316Zm1.447-.071a5.123,5.123,0,0,0,.872,3.134,2.757,2.757,0,0,0,2.327,1.171,2.652,2.652,0,0,0,2.293-1.142,5.457,5.457,0,0,0,.812-3.2,5.621,5.621,0,0,0-.8-3.257,2.642,2.642,0,0,0-2.3-1.147,2.745,2.745,0,0,0-2.332,1.187A5.421,5.421,0,0,0,86.524,102.245Z"/><path class="cls-1" d="M101.926,98.352A1.643,1.643,0,0,0,100.794,98a1.881,1.881,0,0,0-1.638,1.116,5.845,5.845,0,0,0-.642,2.928v5.666H97.093V96.64h1.421v2.293h.043a3.968,3.968,0,0,1,.986-1.832,2.053,2.053,0,0,1,1.464-.651,2.211,2.211,0,0,1,.919.15Z"/><path class="cls-1" d="M119.845,35.6V80.412a3.509,3.509,0,0,1-3.51,3.51h0a3.51,3.51,0,0,1-3.511-3.51V35.6a3.511,3.511,0,0,1,3.511-3.51h0A3.51,3.51,0,0,1,119.845,35.6Z"/><path class="cls-1" d="M76.207,68.345a1.429,1.429,0,0,0,2.235,0l3.374-4.227L96.178,46.123v34.09a3.644,3.644,0,0,0,3.322,3.7,3.51,3.51,0,0,0,3.7-3.5V36.777a3.682,3.682,0,0,0-3.485-3.688c-1.645-.013-2.452,1.214-3.5,2.552-3.841,4.91-14.075,17.791-17.643,22.28a1.593,1.593,0,0,1-2.5,0c-3.567-4.489-13.8-17.37-17.642-22.28-1.047-1.338-1.854-2.565-3.5-2.552a3.674,3.674,0,0,0-3.486,3.68V80.22a3.638,3.638,0,0,0,3.322,3.7,3.51,3.51,0,0,0,3.7-3.5V46.123L72.833,64.118Z"/><path class="cls-1" d="M33.781,59.594a2.75,2.75,0,0,1-.906-1.193,2.753,2.753,0,0,1,.906-1.192,13.921,13.921,0,0,0,1.964-1.785,12.625,12.625,0,0,0,3.2-8.77,13.141,13.141,0,0,0-3.829-9.438c-2.556-2.638-6.139-3.976-10.649-3.976l-21.54-.151A2.9,2.9,0,0,0,0,35.967V80.836a2.9,2.9,0,0,0,2.931,2.878l21.54-.151c4.51,0,8.093-1.338,10.649-3.976a13.141,13.141,0,0,0,3.829-9.438,12.623,12.623,0,0,0-3.2-8.77A13.921,13.921,0,0,0,33.781,59.594Zm-2.026,15.72a10.527,10.527,0,0,1-4.3,2.62l-1.241.257H5.863V38.612H26.211l1.241.257a10.527,10.527,0,0,1,4.3,2.62,6.666,6.666,0,0,1,1.893,5.09,8.853,8.853,0,0,1-2.736,6.358c-1.824,1.886-4.449,2.8-8.024,2.8l-9.529.057a2.606,2.606,0,1,0,0,5.209l9.529.057c3.575,0,6.2.917,8.024,2.8a8.852,8.852,0,0,1,2.736,6.357A6.666,6.666,0,0,1,31.755,75.314Z"/><path class="cls-1" d="M76.918,14.8c-4-2.329-10.215-3.452-16.4-3.444H60.34c-6.182-.008-12.4,1.115-16.4,3.444,0,1.437,0,5.67,0,5.67H76.918S76.917,16.236,76.918,14.8Z"/></g></g></svg>